<?xml version="1.0"?>
<svg width="500" height="500" xmlns="http://www.w3.org/2000/svg" xmlns:svg="http://www.w3.org/2000/svg" enable-background="new 0 0 500 500" version="1.1" xml:space="preserve">
 <g class="layer">
  <title>Layer 1</title>
  <g id="OBJECTS">
   <g id="svg_4">
    <g id="svg_5">
     <g id="svg_6">
      <g id="svg_7">
       <g id="svg_8">
        <path d="m199.62,166.7l0,92.54c-3.68,0 -7.29,0.24 -10.86,0.73c-39.38,5.21 -69.92,38.44 -70.96,78.99l0,-80.69l-0.01,0c0,-41.51 30.91,-84.01 70.97,-90.66c3.54,-0.6 7.17,-0.91 10.86,-0.91z" fill="#017DC0" id="svg_9"/>
       </g>
       <g id="svg_10">
        <path d="m199.62,270.89l0,60.17c0,10.22 -4.03,19.85 -10.86,26.85c-0.37,0.39 -0.76,0.77 -1.18,1.15c-0.21,0.18 -0.4,0.39 -0.61,0.57c-0.46,0.42 -0.92,0.8 -1.41,1.21c-0.45,0.37 -0.91,0.71 -1.38,1.07c-0.21,0.15 -0.42,0.3 -0.64,0.46c-0.49,0.34 -1,0.68 -1.5,1c-0.57,0.36 -1.13,0.68 -1.71,1c-0.1,0.07 -0.21,0.13 -0.3,0.18c-0.42,0.22 -0.85,0.45 -1.26,0.65c-0.49,0.25 -1,0.48 -1.49,0.68c-0.22,0.1 -0.45,0.21 -0.68,0.3c-0.3,0.15 -0.63,0.27 -0.95,0.39c-0.54,0.21 -1.07,0.4 -1.64,0.58c-32,10.54 -55.29,40.3 -56.18,75.63l0,-80.69l-0.03,0c0,-0.34 0,-0.7 0.03,-1.04c0.51,-41.19 31.22,-82.72 70.96,-89.23c3.53,-0.6 7.16,-0.91 10.85,-0.91z" fill="#017DC0" id="svg_11"/>
       </g>
       <g id="svg_12">
        <path d="m117.81,228.77l0,2.13l-0.03,0c0,-0.71 0,-1.41 0.03,-2.13z" fill="#00B5E8" id="svg_13"/>
       </g>
      </g>
      <path d="m316.37,166.7c0,0.64 0,1.28 -0.01,1.92c0.01,0.1 0.01,0.22 0,0.33c-0.01,0.67 -0.03,1.34 -0.06,1.99c-0.03,0.7 -0.07,1.41 -0.1,2.11c-0.03,0.71 -0.07,1.41 -0.13,2.11c-0.04,0.58 -0.1,1.13 -0.15,1.71c0,0.22 -0.03,0.45 -0.06,0.64c-0.06,0.63 -0.13,1.26 -0.19,1.88c-0.24,2.11 -0.54,4.21 -0.91,6.31c-0.24,1.4 -0.51,2.78 -0.79,4.17c-0.15,0.63 -0.28,1.26 -0.42,1.88c-0.03,0.13 -0.04,0.25 -0.09,0.37c-0.15,0.63 -0.31,1.25 -0.46,1.88c-0.16,0.68 -0.34,1.37 -0.55,2.04c-0.12,0.51 -0.27,1 -0.42,1.47c-0.27,0.97 -0.55,1.92 -0.86,2.87c-0.42,1.24 -0.83,2.46 -1.28,3.69c-0.71,1.96 -1.49,3.9 -2.34,5.83c-0.22,0.49 -0.45,0.98 -0.67,1.47c-0.09,0.22 -0.18,0.43 -0.3,0.65c-0.25,0.55 -0.52,1.09 -0.79,1.65c-0.63,1.24 -1.26,2.47 -1.92,3.68c-0.34,0.63 -0.67,1.22 -1.03,1.82c-0.7,1.19 -1.41,2.38 -2.16,3.54c-0.36,0.57 -0.73,1.12 -1.12,1.67c-0.52,0.82 -1.09,1.61 -1.7,2.41c-0.58,0.83 -1.21,1.65 -1.86,2.46c-0.04,0.1 -0.12,0.19 -0.22,0.28c-0.34,0.45 -0.71,0.89 -1.07,1.34c-0.12,0.16 -0.25,0.31 -0.42,0.49c-0.36,0.42 -0.7,0.83 -1.06,1.22c-0.45,0.54 -0.92,1.06 -1.4,1.56c-0.36,0.4 -0.73,0.77 -1.1,1.18c-0.19,0.19 -0.37,0.39 -0.57,0.57c-0.4,0.4 -0.79,0.8 -1.19,1.18c-0.18,0.19 -0.34,0.36 -0.52,0.52c-0.4,0.39 -0.82,0.77 -1.22,1.13c-0.7,0.64 -1.41,1.28 -2.16,1.88c-0.03,0.06 -0.07,0.07 -0.1,0.1c-0.71,0.63 -1.46,1.22 -2.2,1.8c-0.63,0.49 -1.26,0.95 -1.89,1.41c-0.37,0.27 -0.74,0.54 -1.12,0.79c-0.6,0.42 -1.19,0.82 -1.8,1.22c-0.82,0.54 -1.65,1.07 -2.52,1.58c-11.3,6.79 -24.94,10.77 -40.91,10.77l-34.93,0.97l0,-92.54l116.75,0z" fill="#00B5E8" id="svg_14"/>
      <g id="svg_15">
       <path d="m316.38,166.7c0,0.64 0,1.28 -0.03,1.92c0.01,0.1 0.01,0.22 0,0.33c-0.01,0.67 -0.03,1.34 -0.06,1.99c-0.03,0.7 -0.06,1.41 -0.1,2.11c-0.03,0.71 -0.07,1.41 -0.13,2.11c-0.04,0.58 -0.1,1.13 -0.15,1.71c0,0.22 -0.03,0.45 -0.06,0.64c-0.06,0.63 -0.13,1.26 -0.19,1.88c-0.24,2.11 -0.52,4.21 -0.91,6.31c-0.22,1.4 -0.49,2.78 -0.79,4.17c-0.15,0.63 -0.28,1.26 -0.42,1.88c-0.03,0.13 -0.04,0.25 -0.09,0.37c-0.15,0.63 -0.31,1.25 -0.46,1.88c-0.16,0.68 -0.34,1.37 -0.55,2.04c-0.12,0.51 -0.27,1 -0.4,1.47c-0.28,0.97 -0.57,1.92 -0.88,2.87c-0.4,1.24 -0.82,2.49 -1.28,3.69c-0.71,1.98 -1.49,3.91 -2.34,5.83c-0.22,0.49 -0.43,0.98 -0.65,1.47c-0.1,0.22 -0.19,0.43 -0.31,0.65c-0.25,0.55 -0.51,1.09 -0.79,1.65c-0.63,1.24 -1.26,2.47 -1.92,3.68c-0.34,0.63 -0.67,1.22 -1.03,1.82c-0.67,1.19 -1.4,2.38 -2.16,3.54c-0.36,0.57 -0.73,1.12 -1.1,1.67c-0.54,0.82 -1.1,1.61 -1.71,2.41c-0.58,0.83 -1.21,1.65 -1.86,2.46c-0.04,0.1 -0.12,0.19 -0.22,0.28c-0.34,0.45 -0.71,0.89 -1.07,1.34c-0.12,0.16 -0.25,0.31 -0.42,0.49c-0.36,0.42 -0.7,0.83 -1.06,1.22c-0.43,0.54 -0.92,1.06 -1.4,1.56c-0.36,0.4 -0.73,0.77 -1.1,1.18c-0.19,0.19 -0.37,0.39 -0.57,0.57c-0.39,0.4 -0.79,0.8 -1.19,1.18c-0.18,0.19 -0.34,0.36 -0.52,0.52c-0.4,0.39 -0.8,0.77 -1.22,1.13c-0.7,0.64 -1.41,1.28 -2.14,1.88c-0.03,0.06 -0.09,0.07 -0.12,0.1c-0.71,0.63 -1.46,1.22 -2.2,1.8c-0.63,0.49 -1.26,0.95 -1.89,1.41c-0.37,0.27 -0.73,0.54 -1.12,0.79c-0.6,0.42 -1.19,0.82 -1.8,1.22c-0.82,0.54 -1.65,1.07 -2.5,1.58c20.64,-17.62 30.98,-45.85 30.98,-73.65l-106.84,0l0,-7.14l116.77,0z" fill="#F5F6F6" id="svg_16"/>
      </g>
      <g id="svg_17">
       <path d="m117.79,361.03c-0.01,0.36 -0.01,0.7 -0.01,1.06l0.01,0l0,-1.06z" fill="#1F1E21" id="svg_18" opacity="0.2"/>
       <path d="m188.75,167.6c3.54,-0.6 7.17,-0.91 10.86,-0.91l0,92.54c-3.68,0 -7.29,0.24 -10.86,0.73l0,-92.36z" fill="#1F1E21" id="svg_19" opacity="0.2"/>
       <path d="m188.75,271.79c3.54,-0.61 7.17,-0.91 10.86,-0.91l0,60.17c0,10.22 -4.03,19.85 -10.86,26.85c-0.37,0.39 -0.76,0.77 -1.18,1.15c-0.21,0.18 -0.4,0.39 -0.61,0.57c-0.46,0.42 -0.92,0.8 -1.41,1.21c-0.45,0.37 -0.91,0.71 -1.38,1.07c-0.21,0.15 -0.42,0.3 -0.64,0.46c-0.49,0.34 -1,0.68 -1.5,1c-0.57,0.36 -1.13,0.68 -1.71,1c-0.1,0.07 -0.21,0.13 -0.3,0.18c-0.42,0.22 -0.85,0.45 -1.26,0.65c-0.49,0.25 -1,0.48 -1.49,0.68c-0.22,0.1 -0.45,0.21 -0.68,0.3c-0.3,0.15 -0.63,0.27 -0.95,0.39c-0.54,0.21 -1.07,0.4 -1.64,0.58c-32,10.54 -55.29,40.3 -56.18,75.63l0,-11.65c0.89,-35.33 24.18,-65.08 56.18,-75.63c0.06,-0.01 0.12,-0.03 0.18,-0.04c8.83,-2.96 14.58,-11.47 14.58,-20.78l0,-62.86z" fill="#1F1E21" id="svg_20" opacity="0.2"/>
      </g>
     </g>
     <g id="svg_21">
      <g id="svg_22">
       <path d="m199.62,62.49l0,92.54c-3.68,0 -7.29,0.24 -10.86,0.71c-39.38,5.21 -69.92,38.44 -70.96,78.99l0,-80.68l-0.01,0c0,-41.51 30.91,-84.02 70.97,-90.66c3.54,-0.61 7.17,-0.91 10.86,-0.91z" fill="#017DC0" id="svg_23"/>
       <path d="m398.22,62.49c0,45.2 -27.38,91.57 -81.85,91.57l-116.75,0.97l0,-92.54l198.6,0z" fill="#00B5E8" id="svg_24"/>
       <path d="m398.22,62.49c0,31.94 -13.68,64.47 -40.93,80.8c20.64,-17.62 30.98,-45.85 30.98,-73.65l-188.66,0l0,-7.14l198.6,0z" fill="#F5F6F6" id="svg_25"/>
      </g>
      <path d="m199.62,62.49l0,92.54c-3.68,0 -7.29,0.24 -10.86,0.71l0,-92.34c3.54,-0.61 7.17,-0.91 10.86,-0.91z" fill="#1F1E21" id="svg_26" opacity="0.2"/>
     </g>
    </g>
   </g>
  </g>
 </g>
</svg>